# xmcd
#
# Track frame offsets:
#   150
#   17235
#   31762
#   45001
#   57726
#   73471
#   94534
#   105452
#   120220
#   136002
#   153900
#   175114
#   194119
#   209520
#   225795
#   240863
#   256082
#
# Disc length: 3665 seconds
#
# Revision: 0
# Processed by: cddbd v1.5.2PL0 Copyright (c) Steve Scherf et al.
# Submitted via: uFREEDB ActiveX Control 1.5
#
DISCID=cf0e4f11
DTITLE=lara - lara
DYEAR=1900
DGENRE=Blues
TTITLE0=lara 1
TTITLE1=lara 2
TTITLE2=lara3
TTITLE3=lara4
TTITLE4=lara5
TTITLE5=lara6
TTITLE6=lara7
TTITLE7=lara8
TTITLE8=lara9
TTITLE9=lara10
TTITLE10=lara11
TTITLE11=lara11
TTITLE12=lara13
TTITLE13=lara14
TTITLE14=lara15
TTITLE15=lara16
TTITLE16=lara17
EXTD=
EXTT0=
EXTT1=
EXTT2=
EXTT3=
EXTT4=
EXTT5=
EXTT6=
EXTT7=
EXTT8=
EXTT9=
EXTT10=
EXTT11=
EXTT12=
EXTT13=
EXTT14=
EXTT15=
EXTT16=
PLAYORDER=
